# xmcd
#
# Track frame offsets: 
#        150
#        22515
#        41428
#        63504
#        81947
#        95794
#        118678
#        140872
#        158319
#        177276
#        200361
#
# Disc length: 3127 seconds
#
# Revision: 0
# Processed by: cddbd v1.5.2PL0 Copyright (c) Steve Scherf et al.
# Submitted via: ExactAudioCopy v0.95b3
#
DISCID=8a0c350b
DTITLE=Tom Gillam - First Of All
DYEAR=1998
DGENRE=Blues
TTITLE0=Killing Time
TTITLE1=Postcards From The Fringe
TTITLE2=Moon Song
TTITLE3=Certain Kind
TTITLE4=Just As Well
TTITLE5=Whisper In The Wind
TTITLE6=No Questions, No Lies
TTITLE7=Candle Musings
TTITLE8=Lost
TTITLE9=Aching (For Me?)
TTITLE10=We Don't Have To Go Home/Hard To Live, Hard To Die
EXTD=
EXTT0=
EXTT1=
EXTT2=
EXTT3=
EXTT4=
EXTT5=
EXTT6=
EXTT7=
EXTT8=
EXTT9=
EXTT10=
PLAYORDER=
